<?xml version="1.0" standalone="no"?>
<!DOCTYPE svg PUBLIC "-//W3C//DTD SVG 20010904//EN"
 "http://www.w3.org/TR/2001/REC-SVG-20010904/DTD/svg10.dtd">
<svg version="1.0" xmlns="http://www.w3.org/2000/svg"
 width="512.000000pt" height="512.000000pt" viewBox="0 0 512.000000 512.000000"
 preserveAspectRatio="xMidYMid meet">
<metadata>
Created by potrace 1.14, written by Peter Selinger 2001-2017
</metadata>
<g transform="translate(0.000000,512.000000) scale(0.100000,-0.100000)"
fill="#000000" stroke="none">
<path d="M2409 5116 c-2 -2 -38 -6 -79 -9 -320 -26 -617 -112 -925 -267 -688
-347 -1181 -983 -1345 -1737 -52 -238 -69 -520 -47 -778 8 -99 9 -103 38 -258
76 -406 284 -843 552 -1156 78 -92 312 -313 402 -382 313 -237 720 -421 1062
-480 89 -15 163 -27 218 -35 28 -4 677 -9 1443 -11 l1393 -4 -4 1398 c-2 769
-6 1409 -9 1423 -4 14 -9 52 -13 85 -4 33 -15 103 -26 155 -136 672 -530 1256
-1101 1637 -307 204 -726 360 -1073 399 -33 3 -69 8 -80 11 -26 5 -401 14
-406 9z m733 -810 c75 -4 147 -9 160 -11 12 -2 50 -6 83 -10 52 -5 171 -24
257 -40 146 -28 350 -87 468 -137 46 -20 164 -82 180 -95 10 -9 5 -1071 -4
-1070 -6 1 -37 19 -71 40 -33 21 -91 54 -130 72 -65 31 -261 102 -308 111 -11
2 -34 8 -52 14 -18 6 -41 12 -51 14 -10 2 -48 11 -84 19 -36 8 -99 20 -140 27
-41 7 -82 14 -91 15 -130 24 -551 24 -668 0 -9 -2 -52 -11 -96 -20 -386 -80
-601 -327 -596 -685 2 -120 2 -118 19 -190 60 -259 252 -427 578 -509 44 -11
95 -22 114 -25 19 -2 56 -8 82 -11 83 -12 301 -12 361 1 31 6 57 10 57 8 0 -3
11 3 24 11 22 14 23 22 23 99 l-1 83 -258 0 c-142 0 -261 3 -264 6 -5 5 -8
528 -4 800 0 16 48 17 875 17 l875 0 0 -850 0 -850 -92 -44 c-108 -52 -282
-112 -453 -154 -116 -29 -304 -70 -355 -77 -185 -25 -323 -41 -450 -51 -99 -8
-541 -8 -585 0 -16 3 -67 8 -112 11 -45 3 -90 7 -100 9 -10 2 -56 11 -103 20
-107 20 -115 22 -170 36 -25 6 -61 15 -80 19 -43 10 -220 72 -275 97 -22 10
-42 18 -45 19 -24 8 -98 45 -174 89 -199 115 -367 252 -491 401 -49 58 -145
200 -145 214 0 5 -4 11 -9 13 -12 4 -84 167 -114 258 -62 191 -85 359 -81 598
2 97 5 188 8 202 3 14 8 45 11 70 28 191 120 424 242 608 56 85 237 277 328
348 28 21 52 41 55 44 11 12 133 90 140 90 5 0 10 3 12 8 12 28 422 202 536
227 9 2 60 15 112 29 52 13 115 28 140 31 25 4 65 11 90 16 25 6 68 13 95 15
28 3 61 7 75 10 14 2 84 7 155 11 72 3 131 6 132 7 4 3 233 -2 365 -8z"/>
</g>
</svg>
